# Blender 4.2.0
# www.blender.org
mtllib goal.mtl
o Cube
v 0.000000 0.038811 -0.138180
v -0.279513 -0.387642 -0.000000
v 0.000000 0.041941 0.134743
v 0.403122 0.279513 -0.000000
v -0.403122 0.279513 0.000000
v 0.279513 -0.387642 0.000000
v -0.000000 0.695176 -0.000000
v -0.122789 0.381583 -0.000000
v -0.273569 0.000000 -0.000000
v 0.000000 -0.268517 0.000000
v 0.273569 0.000000 -0.000000
v 0.122789 0.381583 -0.000000
vn 0.4656 0.1823 -0.8660
vn -0.1214 0.3334 -0.9349
vn -0.1196 0.3285 0.9369
vn 0.4585 0.1795 0.8704
vn -0.4427 0.0068 0.8967
vn -0.4102 -0.1901 0.8920
vn -0.4201 -0.1947 -0.8864
vn -0.4516 0.0069 -0.8922
vn 0.1722 -0.4040 -0.8984
vn -0.1722 -0.4040 -0.8984
vn -0.1673 -0.3925 0.9044
vn 0.1673 -0.3925 0.9044
vn 0.4516 0.0069 -0.8922
vn 0.4201 -0.1947 -0.8864
vn 0.4102 -0.1901 0.8920
vn 0.4427 0.0068 0.8967
vn 0.1196 0.3285 0.9369
vn 0.1214 0.3334 -0.9349
vn -0.4656 0.1823 -0.8660
vn -0.4585 0.1795 0.8704
vt 0.000163 0.166721
vt 0.166721 0.333279
vt 0.083442 0.416558
vt 0.166721 0.000163
vt 0.333279 0.166721
vt 0.250000 0.250000
vt 0.333279 0.499837
vt 0.000163 0.833279
vt 0.000163 0.500163
vt 0.166721 0.666721
vt 0.333279 0.500163
vt 0.333279 0.833279
vt 0.166721 0.999837
vt 0.333605 0.166721
vt 0.500163 0.333279
vt 0.333605 0.499837
vt 0.500163 0.000163
vt 0.666721 0.166721
vt 0.666721 0.499837
vt 0.333606 0.666721
vt 0.500163 0.833279
vt 0.333606 0.999837
vt 0.500163 0.500163
vt 0.666721 0.666721
vt 0.666721 0.999837
vt 0.000163 0.499837
s 0
usemtl Material
f 1/1/1 7/2/1 12/3/1
f 1/4/2 5/5/2 8/6/2
f 8/6/3 5/5/3 3/7/3
f 12/3/4 7/2/4 3/7/4
f 2/8/5 3/9/5 9/10/5
f 3/9/6 5/11/6 9/10/6
f 9/10/7 5/11/7 1/12/7
f 2/8/8 9/10/8 1/13/8
f 1/14/9 10/15/9 2/16/9
f 1/17/10 6/18/10 10/15/10
f 10/15/11 6/18/11 3/19/11
f 2/16/12 10/15/12 3/19/12
f 1/20/13 11/21/13 6/22/13
f 1/23/14 4/24/14 11/21/14
f 11/21/15 4/24/15 3/25/15
f 6/22/16 11/21/16 3/25/16
f 4/26/17 12/3/17 3/7/17
f 4/26/18 1/1/18 12/3/18
f 7/2/19 1/4/19 8/6/19
f 7/2/20 8/6/20 3/7/20
