# Blender 4.2.0
# www.blender.org
mtllib ãƒã‚°ãƒ­.mtl
o Cube
v 0.167257 0.242167 -0.426117
v 0.167257 -0.161609 -0.426117
v 0.203563 0.281079 0.405984
v 0.203563 -0.209997 0.405984
v -0.167494 0.242167 -0.426117
v -0.167494 -0.161609 -0.426117
v -0.203563 0.281079 0.405984
v -0.203563 -0.209997 0.405984
v 0.084480 -0.243981 -0.424959
v -0.000118 -0.252371 -0.423317
v -0.084717 -0.243981 -0.424959
v 0.101782 0.323236 0.405984
v 0.000000 0.329444 0.434092
v -0.101782 0.326432 0.405984
v -0.101782 -0.305790 0.405984
v 0.000000 -0.321570 0.428361
v 0.101782 -0.305790 0.405984
v -0.084717 0.282313 -0.424959
v -0.000118 0.307347 -0.423317
v 0.084480 0.279656 -0.424959
v 0.224628 0.127804 -0.424959
v 0.247959 0.010924 -0.423317
v 0.206228 -0.105822 -0.424959
v -0.262741 0.000000 0.443151
v 0.262465 0.000000 0.443151
v -0.224864 0.127804 -0.424959
v -0.248352 0.010924 -0.423317
v -0.206465 -0.105822 -0.424959
v 0.000114 0.089127 -0.822816
v -0.074253 -0.001550 -0.817943
v -0.030044 -0.084741 -0.817598
v -0.000113 -0.007230 -0.944062
v 0.000000 -0.101253 -0.817943
v 0.074254 -0.001550 -0.817943
v 0.030044 -0.084741 -0.817598
v 0.000000 0.021999 1.061696
v 0.113456 0.000000 0.769609
v 0.000000 -0.043284 1.062009
v -0.000094 0.000000 0.786595
v -0.113644 0.000000 0.769609
v -0.196421 -0.199937 -0.190597
v -0.212443 -0.149675 -0.017114
v -0.203563 -0.143586 0.194435
v 0.196362 0.273837 -0.190597
v 0.212516 0.290063 -0.017114
v 0.203563 0.281079 0.194435
v -0.203563 0.281079 0.194435
v -0.212443 0.290063 -0.017114
v -0.196421 0.273837 -0.190597
v 0.203563 -0.143586 0.194435
v 0.212516 -0.149675 -0.017114
v 0.196362 -0.199937 -0.190597
v -0.098225 -0.293562 -0.190597
v -0.106203 -0.323817 -0.017114
v -0.101782 -0.307040 0.194435
v -0.000029 -0.334803 -0.190597
v 0.000036 -0.361080 -0.017114
v 0.000000 -0.342739 0.194435
v 0.098166 -0.293562 -0.190597
v 0.106276 -0.323817 -0.017114
v 0.101782 -0.307040 0.194435
v 0.098166 0.314508 -0.190597
v 0.106276 0.334067 -0.017114
v 0.101782 0.323236 0.194435
v -0.000029 0.344476 -0.190597
v 0.000036 0.366489 -0.017114
v 0.000000 0.354297 0.194435
v -0.098225 0.317593 -0.190597
v -0.106203 0.337403 -0.017114
v -0.101782 0.326432 0.194435
v 0.286036 0.002661 -0.190597
v 0.309536 -0.013628 -0.017114
v 0.296512 -0.003864 0.194435
v -0.296699 -0.003864 0.194435
v -0.309659 -0.013628 -0.017114
v -0.286276 0.002661 -0.190597
v 0.026756 0.021324 1.022168
v -0.028334 0.020946 1.022168
v -0.252469 0.210809 0.405984
v -0.171512 0.305331 0.405984
v -0.141141 0.262109 -0.426117
v -0.221468 0.184390 -0.426117
v -0.259751 0.206043 -0.190597
v -0.280962 0.216715 -0.017114
v -0.269206 0.210809 0.194435
v -0.165499 0.297235 -0.190597
v -0.178988 0.315378 -0.017114
v -0.171512 0.305331 0.194435
v 0.140904 0.257072 -0.426117
v 0.171512 0.299206 0.405984
v 0.210436 0.184390 -0.426117
v 0.256078 0.210809 0.405984
v 0.165440 0.291325 -0.190597
v 0.179061 0.308984 -0.017114
v 0.171512 0.299206 0.194435
v 0.247026 0.206043 -0.190597
v 0.267331 0.216715 -0.017114
v 0.256078 0.210809 0.194435
v 0.070106 0.023885 0.895888
v -0.070989 0.023697 0.895888
v 0.103798 -0.006416 0.825353
v -0.104681 -0.006637 0.825353
v 0.000000 0.045735 1.036465
v 0.261026 -0.081652 0.090977
v 0.513331 -0.065724 0.007146
v 0.233014 -0.073725 0.424567
v -0.513425 -0.065724 0.007146
v -0.261051 -0.081652 0.090977
v -0.233152 -0.073725 0.424567
v -0.050738 0.191066 0.728476
v -0.115949 0.173685 0.714076
v -0.140401 0.138550 0.714076
v 0.050738 0.189471 0.728479
v 0.115159 0.173874 0.714076
v 0.141417 0.138739 0.714076
v 0.000000 0.201565 0.735278
v 0.373173 -0.069724 0.289173
v -0.373289 -0.069724 0.289173
v 0.002563 0.532655 -0.550859
v 0.001223 0.378785 -0.414583
v 0.000000 -0.200477 -1.098847
v -0.021273 0.330730 -0.190597
v 0.021214 0.329796 -0.190597
v 0.000000 -0.111806 -0.967551
v 0.015021 0.040692 -0.883283
v -0.015022 0.041052 -0.883461
v 0.000000 -0.167709 -1.033199
v 0.006634 0.236113 -1.090835
vn -0.4579 0.8885 0.0292
vn -0.6834 0.7290 0.0377
vn -0.6637 0.7174 0.2118
vn -0.4175 0.8860 0.2018
vn 0.5642 0.6953 0.4453
vn 0.3115 0.8455 0.4338
vn -0.1271 -0.0842 0.9883
vn 0.6672 -0.2527 0.7007
vn -0.9034 0.3989 -0.1575
vn -0.6633 0.7322 -0.1545
vn -0.6086 0.7189 -0.3358
vn -0.8704 0.3617 -0.3342
vn 0.6133 -0.7896 0.0216
vn 0.7077 -0.7065 -0.0001
vn 0.8809 -0.4565 0.1254
vn 0.5292 -0.8316 0.1683
vn 0.9272 0.3712 0.0492
vn 0.6687 0.7429 0.0300
vn 0.6418 0.7395 0.2031
vn 0.9234 0.3275 0.2003
vn 0.0007 0.8650 -0.5018
vn 0.3119 0.8974 -0.3122
vn 0.3908 0.8630 -0.3201
vn 0.6252 0.7059 -0.3330
vn -0.4236 0.8461 -0.3236
vn -0.2964 0.9006 -0.3177
vn 0.0135 0.9495 -0.3134
vn -0.7076 -0.7066 -0.0003
vn -0.6133 -0.7895 0.0215
vn -0.5292 -0.8316 0.1683
vn -0.8806 -0.4570 0.1253
vn -0.0000 -0.9977 0.0685
vn -0.0000 -0.9697 0.2444
vn 0.9249 0.1855 0.3318
vn 0.9137 -0.1197 0.3883
vn 0.9619 -0.1208 0.2454
vn 0.8621 0.2851 0.4189
vn 0.8211 -0.0502 0.5685
vn 0.9067 0.0039 -0.4217
vn 0.8771 0.4772 0.0538
vn 0.4112 0.9111 0.0284
vn 0.2833 0.9582 0.0411
vn 0.2691 0.9409 0.2056
vn 0.3810 0.9023 0.2018
vn 0.0152 0.9983 0.0563
vn 0.0147 0.9677 0.2518
vn -0.2506 0.9672 0.0414
vn -0.2520 0.9447 0.2098
vn 0.0002 0.0245 0.9997
vn -0.3263 -0.0243 0.9449
vn -0.9144 -0.1122 0.3889
vn -0.7136 -0.2296 0.6618
vn -0.1204 -0.9859 0.1163
vn 0.8443 -0.4295 0.3205
vn -0.9117 -0.3197 0.2582
vn -0.9597 -0.1227 0.2528
vn -0.8876 0.4559 0.0658
vn -0.0001 -0.9446 -0.3282
vn -0.0000 -0.9256 -0.3785
vn 0.6558 -0.6289 -0.4175
vn 0.4782 -0.8238 -0.3044
vn -0.0109 -0.1261 -0.9920
vn 0.9012 0.0575 -0.4295
vn -0.4783 -0.8238 -0.3043
vn -0.6557 -0.6291 -0.4174
vn -0.9013 0.0579 -0.4292
vn -0.7719 -0.5759 -0.2692
vn -0.8727 -0.4050 -0.2727
vn -0.9502 -0.0898 -0.2985
vn -0.9320 0.1225 -0.3410
vn 0.8730 -0.4044 -0.2728
vn 0.7720 -0.5758 -0.2693
vn 0.9528 -0.0725 -0.2950
vn 0.9261 0.1916 -0.3251
vn 0.9849 -0.1192 -0.1256
vn 0.8237 -0.5578 -0.1019
vn 0.9857 -0.1672 -0.0213
vn 0.9222 0.3852 -0.0340
vn 0.8661 0.3773 -0.3279
vn 0.9098 0.3876 -0.1481
vn -0.5836 0.6786 0.4460
vn -0.8671 0.2790 0.4127
vn -0.9803 -0.1491 -0.1299
vn -0.9067 0.0039 -0.4217
vn -0.6750 -0.6744 -0.2994
vn -0.8353 -0.5498 -0.0002
vn -0.9806 -0.1948 -0.0217
vn -0.9178 0.3956 -0.0352
vn -0.9237 0.3768 0.0688
vn 0.8355 -0.5494 -0.0004
vn 0.6758 -0.6736 -0.2993
vn -0.8235 -0.5582 -0.1013
vn 0.0150 0.9889 -0.1476
vn -0.2484 0.9584 -0.1405
vn -0.2711 0.9520 -0.1421
vn -0.2769 0.9601 -0.0382
vn 0.0149 0.9989 -0.0448
vn 0.3026 0.9426 -0.1412
vn 0.2758 0.9510 -0.1398
vn 0.3090 0.9503 -0.0381
vn 0.4124 0.8990 -0.1472
vn 0.4147 0.9093 -0.0337
vn 0.5593 -0.8132 -0.1608
vn -0.0000 -0.9749 -0.2225
vn 0.6312 -0.7756 -0.0084
vn 0.0001 -0.9992 -0.0408
vn -0.5594 -0.8133 -0.1604
vn -0.6311 -0.7757 -0.0083
vn 0.6624 0.7330 -0.1547
vn 0.6737 0.7382 -0.0352
vn -0.9179 0.3309 0.2188
vn -0.6724 0.7394 -0.0352
vn -0.4589 0.8756 -0.1508
vn -0.4638 0.8853 -0.0345
vn 0.9534 0.2415 -0.1807
vn -0.9445 0.2640 -0.1954
vn 0.9121 -0.3184 0.2583
vn 0.0136 0.9024 0.4306
vn -0.3048 0.8457 0.4380
vn 0.0035 0.7501 0.6613
vn -0.9276 0.0321 0.3721
vn 0.8926 -0.3597 -0.2717
vn -0.8212 -0.0504 0.5685
vn -0.5215 -0.7547 -0.3980
vn 0.4982 -0.7700 -0.3986
vn -0.9879 -0.0979 -0.1202
vn -0.9879 0.1075 0.1117
vn -0.9959 0.0076 0.0905
vn -0.9952 0.0301 -0.0935
vn -0.6601 0.7376 -0.1425
vn -0.8909 0.4508 -0.0553
vn -0.9524 -0.1910 0.2377
vn -0.0000 0.9429 -0.3331
vn 0.4574 0.8385 -0.2962
vn -0.9527 0.1897 -0.2376
vn 0.0443 0.6894 -0.7230
vt 0.121867 0.477354
vt 0.140494 0.480215
vt 0.136448 0.529372
vt 0.117931 0.529143
vt 0.624164 0.231121
vt 0.580202 0.219366
vt 0.580766 0.074155
vt 0.597985 0.089206
vt 0.201255 0.405939
vt 0.164857 0.390622
vt 0.188123 0.333063
vt 0.217358 0.350827
vt 0.894737 0.316726
vt 0.809331 0.342394
vt 0.807524 0.288522
vt 0.870537 0.259390
vt 0.679109 0.379450
vt 0.643848 0.385806
vt 0.639426 0.337057
vt 0.672640 0.335128
vt 0.775379 0.685172
vt 0.650867 0.561457
vt 0.677284 0.541292
vt 0.689748 0.532102
vt 0.174392 0.323910
vt 0.148150 0.303036
vt 0.278890 0.178152
vt 0.103177 0.266792
vt 0.737299 0.708978
vt 0.605737 0.596175
vt 0.308896 0.526452
vt 0.393776 0.554510
vt 0.369475 0.611845
vt 0.307416 0.581425
vt 0.461449 0.580364
vt 0.422320 0.655345
vt 0.962689 0.292901
vt 0.926431 0.216718
vt 0.636415 0.123723
vt 0.695476 0.151960
vt 0.734541 0.308438
vt 0.648818 0.227637
vt 0.383169 0.832809
vt 0.464472 0.746558
vt 0.417300 0.883904
vt 0.626131 0.388447
vt 0.586718 0.393756
vt 0.583147 0.335580
vt 0.621928 0.336647
vt 0.522224 0.401386
vt 0.521438 0.323639
vt 0.017337 0.465017
vt 0.082718 0.472268
vt 0.078995 0.530608
vt 0.017337 0.544300
vt 0.209897 0.833867
vt 0.163935 0.791800
vt 0.196707 0.708365
vt 0.087820 0.784501
vt 0.103195 0.769727
vt 0.137202 0.740041
vt 0.715006 0.017485
vt 0.669852 0.055634
vt 0.671117 0.129915
vt 0.260513 0.568707
vt 0.231742 0.559209
vt 0.247593 0.504253
vt 0.969129 0.510396
vt 0.917009 0.659960
vt 0.869946 0.660235
vt 0.912458 0.499017
vt 0.846369 0.756105
vt 0.821555 0.665659
vt 0.415726 0.370242
vt 0.374945 0.205251
vt 0.422946 0.206078
vt 0.473556 0.359643
vt 0.325747 0.198903
vt 0.352875 0.107221
vt 0.356054 0.370606
vt 0.325182 0.371095
vt 0.277795 0.368268
vt 0.237681 0.354395
vt 0.823407 0.496547
vt 0.853874 0.497535
vt 0.776765 0.498745
vt 0.737325 0.511849
vt 0.767186 0.444007
vt 0.850308 0.432958
vt 0.760911 0.405749
vt 0.690872 0.424423
vt 0.748706 0.363643
vt 0.716602 0.518171
vt 0.699864 0.462576
vt 0.122698 0.634852
vt 0.146266 0.638342
vt 0.267470 0.423353
vt 0.684239 0.836215
vt 0.560986 0.679954
vt 0.677322 0.783026
vt 0.323177 0.475131
vt 0.283454 0.491685
vt 0.260505 0.461925
vt 0.192334 0.443405
vt 0.179984 0.486965
vt 0.822877 0.393597
vt 0.783899 0.376636
vt 0.351475 0.435896
vt 0.046219 0.337667
vt 0.063164 0.340351
vt 0.112165 0.365095
vt 0.095824 0.413821
vt 0.028381 0.396076
vt 0.615779 0.499748
vt 0.567266 0.523641
vt 0.550424 0.526114
vt 0.533270 0.468992
vt 0.599897 0.451581
vt 0.651490 0.482412
vt 0.639612 0.439330
vt 0.916318 0.426392
vt 0.983496 0.423172
vt 0.911613 0.375252
vt 0.980638 0.363876
vt 0.486293 0.448921
vt 0.418176 0.444026
vt 0.481836 0.509154
vt 0.412287 0.495705
vt 0.667365 0.474927
vt 0.656903 0.434093
vt 0.169004 0.531561
vt 0.153859 0.431809
vt 0.147841 0.383014
vt 0.135501 0.426270
vt 0.810874 0.720638
vt 0.315883 0.142687
vt 0.762816 0.299443
vt 0.045558 0.655654
vt 0.078553 0.647566
vt 0.545738 0.212994
vt 0.575114 0.087807
vt 0.137173 0.739999
vt 0.025274 0.017063
vt 0.026497 0.063336
vt 0.017497 0.107545
vt 0.017497 0.032657
vt 0.464472 0.901945
vt 0.278752 0.872023
vt 0.401930 0.715773
vt 0.498452 0.866174
vt 0.498452 0.710746
vt 0.545631 0.848034
vt 0.285647 0.818842
vt 0.579760 0.796978
vt 0.622429 0.880626
vt 0.081710 0.772055
vt 0.340508 0.916475
vt 0.521438 0.674722
vt 0.017582 0.185784
vt 0.069776 0.256538
vt 0.572893 0.605757
vt 0.969968 0.790465
vt 0.908168 0.773285
vt 0.939068 0.781875
vt 0.479183 0.075068
vt 0.416029 0.091145
vt 0.447606 0.083106
s 1
usemtl Material
f 88/1/1 47/2/2 7/3/3 80/4/4
f 114/5/5 113/6/6 36/7/7 77/8/8
f 83/9/9 49/10/10 5/11/11 82/12/12
f 61/13/13 50/14/14 4/15/15 17/16/16
f 98/17/17 46/18/18 3/19/19 92/20/20
f 29/21/21 20/22/22 89/23/23 1/24/24
f 5/11/11 81/25/25 18/26/26 29/27/21
f 29/27/21 18/26/26 19/28/27
f 29/29/21 19/30/27 20/22/22
f 43/31/28 55/32/29 15/33/30 8/34/31
f 55/32/29 58/35/32 16/36/33 15/33/30
f 58/37/32 61/13/13 17/16/16 16/38/33
f 77/8/8 99/39/34 37/40/35 25/41/36 92/20/20 115/42/37
f 117/43/38 105/44/39 73/45/40
f 95/46/41 64/47/42 12/48/43 90/49/44
f 64/47/42 67/50/45 13/51/46 12/48/43
f 67/52/45 70/53/47 14/54/48 13/55/46
f 16/36/33 38/56/49 15/33/30
f 38/56/49 39/57/50 40/58/51
f 39/57/50 36/59/7 78/60/52 100/61/53 40/58/51
f 17/16/16 38/62/49 16/38/33
f 38/62/49 37/40/35 39/63/50
f 37/40/35 99/39/34 77/8/8 101/64/54
f 109/65/55 24/66/56 74/67/57
f 10/68/58 33/69/59 35/70/60 9/71/61
f 32/72/62 34/73/63 35/70/60
f 11/74/64 31/75/65 33/76/59 10/77/58
f 31/75/65 30/78/66 32/79/62
f 6/80/67 28/81/68 31/75/65
f 27/82/69 30/78/66 31/75/65
f 27/82/69 26/83/70 29/27/21
f 35/70/60 23/84/71 2/85/72
f 35/70/60 34/73/63 22/86/73
f 29/21/21 21/87/74 22/86/73
f 2/85/72 23/84/71 22/86/73 71/88/75 52/89/76
f 72/90/77 97/91/78 98/17/17 73/92/40
f 8/34/31 38/56/49 40/58/51 24/66/56 109/65/55
f 21/87/74 91/93/79 96/94/80 71/88/75 22/86/73
f 111/95/81 112/96/82 78/60/52
f 76/97/83 83/9/9 82/12/12 26/83/70 27/82/69
f 115/42/37 114/5/5 77/8/8
f 43/98/28 107/99/84 108/100/85
f 42/101/86 108/102/85 75/103/87
f 71/88/75 96/94/80 97/91/78 72/90/77
f 75/103/87 84/104/88 83/9/9 76/97/83
f 74/67/57 85/105/89 84/104/88 75/103/87
f 51/106/90 72/90/77 104/107/91
f 50/14/14 51/106/90 104/107/91
f 76/97/83 27/82/69 28/81/68 6/80/67 41/108/92
f 65/109/93 122/110/94 68/111/95 69/112/96 66/113/97
f 66/113/97 69/112/96 70/53/47 67/52/45
f 62/114/98 123/115/99 65/116/93 66/117/97 63/118/100
f 63/118/100 66/117/97 67/50/45 64/47/42
f 89/23/23 20/22/22 62/114/98 93/119/101
f 93/119/101 62/114/98 63/118/100 94/120/102
f 94/120/102 63/118/100 64/47/42 95/46/41
f 10/68/58 9/71/61 59/121/103 56/122/104
f 56/122/104 59/121/103 60/123/105 57/124/106
f 57/124/106 60/123/105 61/13/13 58/37/32
f 11/74/64 10/77/58 56/125/104 53/126/107
f 53/126/107 56/125/104 57/127/106 54/128/108
f 54/128/108 57/127/106 58/35/32 55/32/29
f 6/80/67 11/74/64 53/126/107 41/108/92
f 41/108/92 53/126/107 54/128/108 42/101/86
f 42/101/86 54/128/108 55/32/29 43/31/28
f 91/93/79 1/24/24 44/129/109 96/94/80
f 96/94/80 44/129/109 45/130/110 97/91/78
f 97/91/78 45/130/110 46/18/18 98/17/17
f 9/71/61 2/85/72 52/89/76 59/121/103
f 59/121/103 52/89/76 51/106/90 60/123/105
f 60/123/105 51/106/90 50/14/14 61/13/13
f 79/131/111 7/3/3 47/2/2 85/105/89
f 85/105/89 47/2/2 48/132/112 84/104/88
f 84/104/88 48/132/112 49/10/10 83/9/9
f 81/25/25 5/11/11 49/10/10 86/133/113
f 86/133/113 49/10/10 48/132/112 87/134/114
f 87/134/114 48/132/112 47/2/2 88/1/1
f 15/33/30 38/56/49 8/34/31
f 17/16/16 4/15/15 38/62/49
f 34/73/63 32/72/62 125/135/115 29/21/21
f 30/78/66 29/27/21 126/136/116 32/79/62
f 82/12/12 5/11/11 29/27/21
f 29/21/21 1/24/24 91/93/79
f 9/71/61 35/70/60 2/85/72
f 11/74/64 6/80/67 31/75/65
f 38/62/49 4/15/15 106/137/117 25/41/36 37/40/35
f 116/138/118 13/55/46 14/54/48 110/139/119
f 113/6/6 116/140/118 103/141/120
f 74/67/57 24/66/56 79/131/111 85/105/89
f 69/112/96 87/134/114 88/1/1 70/53/47
f 68/111/95 86/133/113 87/134/114 69/112/96
f 18/26/26 81/25/25 86/133/113 68/111/95
f 70/53/47 88/1/1 80/4/4 14/54/48
f 45/130/110 94/120/102 95/46/41 46/18/18
f 44/129/109 93/119/101 94/120/102 45/130/110
f 1/24/24 89/23/23 93/119/101 44/129/109
f 46/18/18 95/46/41 90/49/44 3/19/19
f 92/20/20 25/41/36 73/92/40 98/17/17
f 110/139/119 111/95/81 78/60/52 36/59/7
f 78/60/52 112/96/82 79/131/111 24/66/56 40/58/51 100/142/121
f 39/63/50 37/40/35 101/64/54 77/8/8 36/7/7
f 40/143/122 100/144/122 78/145/122 102/146/122
f 21/87/74 29/21/21 91/93/79
f 26/83/70 82/12/12 29/27/21
f 34/73/63 29/21/21 22/86/73
f 23/84/71 35/70/60 22/86/73
f 30/78/66 27/82/69 29/27/21
f 28/81/68 27/82/69 31/75/65
f 105/44/39 104/147/91 73/45/40
f 50/148/14 105/149/39 117/43/38
f 75/103/87 108/102/85 74/67/57
f 43/31/28 8/34/31 109/65/55
f 4/15/15 50/14/14 106/137/117
f 25/41/36 106/137/117 73/92/40
f 108/150/85 107/151/84 74/152/57
f 105/149/39 50/148/14 104/153/91
f 118/154/123 109/155/55 74/152/57
f 43/98/28 109/155/55 118/154/123
f 42/101/86 43/31/28 108/102/85
f 14/54/48 80/4/4 7/3/3 111/95/81 110/139/119
f 92/20/20 3/19/19 114/5/5 115/42/37
f 7/3/3 79/131/111 112/96/82 111/95/81
f 3/19/19 90/49/44 12/48/43 113/6/6 114/5/5
f 12/48/43 13/51/46 116/140/118 113/6/6
f 36/7/7 113/6/6 103/141/120
f 103/156/120 116/138/118 110/139/119
f 36/59/7 103/156/120 110/139/119
f 104/107/91 72/90/77 73/92/40
f 19/28/27 18/26/26 68/111/95 122/110/94
f 20/22/22 19/30/27 123/115/99 62/114/98
f 106/157/117 50/148/14 117/43/38
f 106/157/117 117/43/38 73/45/40
f 107/151/84 118/154/123 74/152/57
f 107/99/84 43/98/28 118/154/123
f 52/89/76 71/88/75 72/90/77 51/106/90
f 41/108/92 42/101/86 75/103/87 76/97/83
s 0
f 119/158/124 123/115/124 65/116/124
f 122/110/125 119/159/125 65/109/125
f 122/110/126 119/159/126 120/160/126
f 123/115/127 119/158/127 120/161/127
f 19/30/128 123/115/128 120/161/128
f 19/28/129 122/110/129 120/160/129
s 1
f 121/162/130 35/70/131 32/72/132 124/163/132 127/164/132
f 121/162/130 33/69/133 35/70/131
f 33/76/133 121/165/130 31/75/134
s 0
f 121/165/135 31/75/135 32/79/135 124/166/135 127/167/135
s 1
f 32/79/62 126/136/116 128/79/136
f 125/135/115 32/72/62 128/135/136
f 29/21/21 125/135/115 128/21/136
f 126/136/116 29/27/21 128/136/136
l 36 102
l 36 101
